<svg width="158" height="158" viewBox="0 0 158 158" fill="none" xmlns="http://www.w3.org/2000/svg">
<path fill-rule="evenodd" clip-rule="evenodd" d="M79 155C120.974 155 155 120.974 155 79C155 37.0264 120.974 3 79 3C37.0264 3 3 37.0264 3 79C3 120.974 37.0264 155 79 155ZM79 158C122.63 158 158 122.63 158 79C158 35.3695 122.63 0 79 0C35.3695 0 0 35.3695 0 79C0 122.63 35.3695 158 79 158ZM79 146C116.003 146 146 116.003 146 79C146 41.9969 116.003 12 79 12C41.9969 12 12 41.9969 12 79C12 116.003 41.9969 146 79 146ZM79 148C117.108 148 148 117.108 148 79C148 40.8924 117.108 10 79 10C40.8924 10 10 40.8924 10 79C10 117.108 40.8924 148 79 148ZM144 79C144 114.899 114.899 144 79 144C43.1015 144 14 114.899 14 79C14 43.1015 43.1015 14 79 14C114.899 14 144 43.1015 144 79ZM145 79C145 115.451 115.451 145 79 145C42.5492 145 13 115.451 13 79C13 42.5492 42.5492 13 79 13C115.451 13 145 42.5492 145 79ZM138.5 79.5C138.5 112.637 111.637 139.5 78.5 139.5C45.3629 139.5 18.5 112.637 18.5 79.5C18.5 46.3629 45.3629 19.5 78.5 19.5C111.637 19.5 138.5 46.3629 138.5 79.5ZM139 79.5C139 112.913 111.913 140 78.5 140C45.0868 140 18 112.913 18 79.5C18 46.0868 45.0868 19 78.5 19C111.913 19 139 46.0868 139 79.5ZM78.5 98C88.7173 98 97 89.7173 97 79.5C97 69.2827 88.7173 61 78.5 61C68.2827 61 60 69.2827 60 79.5C60 89.7173 68.2827 98 78.5 98ZM78.5 101C90.3741 101 100 91.3741 100 79.5C100 67.6259 90.3741 58 78.5 58C66.6259 58 57 67.6259 57 79.5C57 91.3741 66.6259 101 78.5 101ZM78.5 52.5C77.3061 52.5 76.1297 52.5776 74.9754 52.7281C74.154 52.8353 73.5749 53.5881 73.6821 54.4096C73.7892 55.231 74.542 55.8101 75.3635 55.7029C76.3894 55.5691 77.4362 55.5 78.5 55.5C79.5638 55.5 80.6106 55.5691 81.6365 55.7029C82.458 55.8101 83.2108 55.231 83.3179 54.4096C83.4251 53.5881 82.846 52.8353 82.0246 52.7281C80.8703 52.5776 79.6939 52.5 78.5 52.5ZM88.8357 54.5494C88.0704 54.232 87.1928 54.5951 86.8755 55.3604C86.5582 56.1256 86.9213 57.0032 87.6865 57.3205C89.6368 58.1293 91.458 59.1882 93.11 60.4577C93.7669 60.9625 94.7086 60.8392 95.2134 60.1823C95.7182 59.5254 95.5949 58.5837 94.938 58.0789C93.0805 56.6516 91.0315 55.4599 88.8357 54.5494ZM69.3135 57.3205C70.0787 57.0032 70.4418 56.1256 70.1245 55.3604C69.8072 54.5951 68.9296 54.232 68.1643 54.5494C65.9685 55.4599 63.9195 56.6516 62.062 58.0789C61.4051 58.5837 61.2818 59.5254 61.7866 60.1823C62.2914 60.8392 63.2331 60.9625 63.89 60.4577C65.5419 59.1882 67.3632 58.1293 69.3135 57.3205ZM99.9211 63.062C99.4163 62.4051 98.4746 62.2818 97.8177 62.7866C97.1608 63.2914 97.0375 64.2331 97.5423 64.89C98.8118 66.5419 99.8707 68.3632 100.679 70.3135C100.997 71.0787 101.874 71.4418 102.64 71.1245C103.405 70.8072 103.768 69.9296 103.451 69.1643C102.54 66.9685 101.348 64.9195 99.9211 63.062ZM59.4577 64.89C59.9625 64.2331 59.8392 63.2914 59.1823 62.7866C58.5254 62.2818 57.5837 62.4051 57.0789 63.062C55.6516 64.9195 54.4599 66.9685 53.5494 69.1643C53.232 69.9296 53.5951 70.8072 54.3604 71.1245C55.1256 71.4418 56.0032 71.0787 56.3205 70.3135C57.1293 68.3632 58.1882 66.542 59.4577 64.89ZM54.7029 76.3635C54.8101 75.542 54.231 74.7892 53.4096 74.6821C52.5881 74.5749 51.8353 75.154 51.7281 75.9754C51.5776 77.1297 51.5 78.3061 51.5 79.5C51.5 80.6939 51.5776 81.8703 51.7281 83.0246C51.8353 83.846 52.5881 84.4251 53.4096 84.3179C54.231 84.2108 54.8101 83.458 54.7029 82.6365C54.5691 81.6106 54.5 80.5638 54.5 79.5C54.5 78.4362 54.5691 77.3894 54.7029 76.3635ZM105.272 75.9754C105.165 75.154 104.412 74.5749 103.59 74.6821C102.769 74.7892 102.19 75.542 102.297 76.3635C102.431 77.3894 102.5 78.4362 102.5 79.5C102.5 80.5638 102.431 81.6106 102.297 82.6365C102.19 83.458 102.769 84.2108 103.59 84.3179C104.412 84.4251 105.165 83.846 105.272 83.0246C105.422 81.8703 105.5 80.6939 105.5 79.5C105.5 78.3061 105.422 77.1297 105.272 75.9754ZM56.3205 88.6865C56.0032 87.9213 55.1256 87.5582 54.3604 87.8755C53.5951 88.1928 53.232 89.0704 53.5494 89.8357C54.4599 92.0315 55.6516 94.0805 57.0789 95.938C57.5837 96.5949 58.5254 96.7182 59.1823 96.2134C59.8392 95.7086 59.9625 94.7669 59.4577 94.11C58.1882 92.4581 57.1293 90.6368 56.3205 88.6865ZM103.451 89.8357C103.768 89.0704 103.405 88.1928 102.64 87.8755C101.874 87.5582 100.997 87.9213 100.679 88.6865C99.8707 90.6368 98.8118 92.458 97.5423 94.11C97.0375 94.7669 97.1608 95.7086 97.8177 96.2134C98.4746 96.7182 99.4163 96.5949 99.9211 95.938C101.348 94.0805 102.54 92.0315 103.451 89.8357ZM94.938 100.921C95.5949 100.416 95.7182 99.4746 95.2134 98.8177C94.7086 98.1608 93.7669 98.0375 93.11 98.5423C91.4581 99.8118 89.6368 100.871 87.6865 101.679C86.9213 101.997 86.5582 102.874 86.8755 103.64C87.1928 104.405 88.0704 104.768 88.8357 104.451C91.0315 103.54 93.0805 102.348 94.938 100.921ZM63.89 98.5423C63.2331 98.0375 62.2914 98.1608 61.7866 98.8177C61.2818 99.4746 61.4051 100.416 62.062 100.921C63.9195 102.348 65.9685 103.54 68.1643 104.451C68.9296 104.768 69.8072 104.405 70.1245 103.64C70.4418 102.874 70.0787 101.997 69.3135 101.679C67.3632 100.871 65.542 99.8118 63.89 98.5423ZM75.3635 103.297C74.542 103.19 73.7892 103.769 73.6821 104.59C73.5749 105.412 74.154 106.165 74.9754 106.272C76.1297 106.422 77.3061 106.5 78.5 106.5C79.6939 106.5 80.8703 106.422 82.0246 106.272C82.846 106.165 83.4251 105.412 83.3179 104.59C83.2108 103.769 82.458 103.19 81.6365 103.297C80.6106 103.431 79.5638 103.5 78.5 103.5C77.4362 103.5 76.3894 103.431 75.3635 103.297Z" fill="#EAEEF2"/>
</svg>
