<svg width="24" height="24" viewBox="0 0 24 24" fill="none" xmlns="http://www.w3.org/2000/svg">
<path d="M5.90647 20.6215C5.02352 19.9998 4.34801 18.1003 4.16161 15.7151L4.12599 15.2593C3.958 13.1095 3.958 10.8905 4.12599 8.74072L4.16161 8.28494C4.34801 5.89968 5.02352 4.0002 5.90648 3.3785C6.62322 2.87383 7.37678 2.87383 8.09352 3.3785C8.97648 4.00019 9.65199 5.89968 9.83839 8.28494L9.87401 8.74072C10.042 10.8905 10.042 13.1095 9.87401 15.2593L9.83839 15.7151C9.65199 18.1003 8.97648 19.9998 8.09353 20.6215C7.37678 21.1262 6.62322 21.1262 5.90647 20.6215Z" fill="white" fill-opacity="0.15" stroke="white" stroke-width="1.5"/>
<path d="M15.9065 20.6215C15.0235 19.9998 14.348 18.1003 14.1616 15.7151L14.126 15.2593C13.958 13.1095 13.958 10.8905 14.126 8.74072L14.1616 8.28494C14.348 5.89968 15.0235 4.0002 15.9065 3.3785C16.6232 2.87383 17.3768 2.87383 18.0935 3.3785C18.9765 4.00019 19.652 5.89968 19.8384 8.28494L19.874 8.74072C20.042 10.8905 20.042 13.1095 19.874 15.2593L19.8384 15.7151C19.652 18.1003 18.9765 19.9998 18.0935 20.6215C17.3768 21.1262 16.6232 21.1262 15.9065 20.6215Z" fill="white" fill-opacity="0.15" stroke="white" stroke-width="1.5"/>
</svg>
