<svg width="47" height="106" viewBox="0 0 47 106" fill="none" xmlns="http://www.w3.org/2000/svg">
<path fill-rule="evenodd" clip-rule="evenodd" d="M45.1626 1.33113C43.3671 0.0430472 40.8682 0.455157 39.581 2.25106L27.3454 19.3184C26.4585 20.5548 26.3783 22.127 27.0016 23.4054L3.79228 57.4454C0.0347147 62.9571 -0.152724 70.1563 3.31297 75.8555L20.7911 104.597C21.365 105.541 22.5954 105.841 23.5391 105.267C24.4829 104.692 24.7827 103.463 24.2088 102.519L6.73064 73.7764C4.08043 69.419 4.22374 63.9132 7.09715 59.6993L30.3196 25.6397C31.6567 25.7315 33.0089 25.1485 33.8472 23.9796L46.0828 6.91219C47.37 5.11629 46.958 2.61824 45.1626 1.33113Z" fill="white"/>
</svg>
