<svg width="24" height="24" viewBox="0 0 24 24" fill="none" xmlns="http://www.w3.org/2000/svg">
<path d="M7.86607 7.00638H7.12819C6.29866 7.00638 5.47502 7.15311 4.69169 7.44046C3.32455 7.94197 2.32964 9.1935 2.10172 10.6985L2.0942 10.7481C1.9686 11.5775 1.9686 12.4225 2.0942 13.2519L2.10172 13.3015C2.32964 14.8065 3.32455 16.058 4.69169 16.5595C5.47502 16.8469 6.29866 16.9936 7.12819 16.9936H7.86607C8.31092 16.9936 8.73726 17.1811 9.04993 17.5142L9.59139 18.091C11.1879 19.7918 13.938 18.9873 14.4719 16.6633C15.176 13.5986 15.176 10.4014 14.4719 7.33668C13.938 5.01271 11.1879 4.20823 9.59138 5.90899L9.04993 6.48581C8.73726 6.81891 8.31092 7.00638 7.86607 7.00638Z" fill="white" fill-opacity="0.15" stroke="white" stroke-width="1.5"/>
<path d="M22 10L18 14M22 14L18 10" stroke="white" stroke-width="1.5" stroke-linecap="round"/>
</svg>
